<?xml version="1.0" encoding="UTF-8"?>
<svg width="39px" height="38px" viewBox="0 0 39 38" version="1.1" xmlns="http://www.w3.org/2000/svg" xmlns:xlink="http://www.w3.org/1999/xlink">
    <title>路径 2</title>
    <defs>
        <filter x="-7.1%" y="-12.6%" width="114.3%" height="125.2%" filterUnits="objectBoundingBox" id="filter-1">
            <feOffset dx="0" dy="2" in="SourceAlpha" result="shadowOffsetOuter1"></feOffset>
            <feGaussianBlur stdDeviation="4" in="shadowOffsetOuter1" result="shadowBlurOuter1"></feGaussianBlur>
            <feColorMatrix values="0 0 0 0 0   0 0 0 0 0   0 0 0 0 0  0 0 0 0.28676792 0" type="matrix" in="shadowBlurOuter1" result="shadowMatrixOuter1"></feColorMatrix>
            <feMerge>
                <feMergeNode in="shadowMatrixOuter1"></feMergeNode>
                <feMergeNode in="SourceGraphic"></feMergeNode>
            </feMerge>
        </filter>
    </defs>
    <g id="页面-1" stroke="none" stroke-width="1" fill="none" fill-rule="evenodd">
        <g id="可领券-未激活备份" transform="translate(-289.000000, -210.000000)" fill="#FFFFFF" fill-rule="nonzero">
            <g id="编组-2备份" filter="url(#filter-1)" transform="translate(40.000000, 208.000000)">
                <g id="路径-2" transform="translate(264.057457, 17.000000)">
                    <path d="M7.86329045,7.25029474 L4.61707432,3.99475041 L7.86196049,0.7485343 C8.00749951,0.605384146 8.02738656,0.382715255 7.92048488,0.21785668 L7.86196049,0.146199294 L7.84197152,0.126210331 C7.69882137,-0.0193286956 7.47615248,-0.0392156034 7.3112939,0.0676860049 L7.23963654,0.126210331 L3.9947504,3.38441467 L0.748534283,0.12621034 C0.605384128,-0.0193288459 0.382715238,-0.0392157736 0.217856663,0.0676859298 L0.146199277,0.126210322 L0.126210345,0.146199254 C-0.0193288412,0.289349408 -0.0392157689,0.512018299 0.0676859101,0.676876874 L0.126210272,0.74853426 L3.3724264,4.0040786 L0.126210242,7.25029476 C-0.0193287853,7.39344491 -0.0392156931,7.6161138 0.0676859639,7.78097238 L0.126210314,7.85262973 L0.146199243,7.87261865 C0.289349397,8.01815784 0.512018288,8.03804477 0.676876863,7.93114309 L0.748534249,7.87261873 L3.99475038,4.6264026 L7.24096654,7.87261875 C7.38411669,8.01815778 7.60678558,8.03804469 7.77164416,7.93114304 L7.8433015,7.8726187 L7.86329047,7.85262973 C8.0088295,7.70947958 8.02871641,7.48681069 7.92181479,7.32195211 L7.86329045,7.25029474 Z" id="路径"></path>
                </g>
            </g>
        </g>
    </g>
</svg>