<?xml version="1.0" encoding="UTF-8"?>
<svg width="125px" height="83px" viewBox="0 0 125 83" version="1.1" xmlns="http://www.w3.org/2000/svg" xmlns:xlink="http://www.w3.org/1999/xlink">
    <title>img_AT_use</title>
    <defs>
        <path d="M0,0 L125,0 L125,81 C125,82.1045695 124.104569,83 123,83 L0,83 L0,83 L0,0 Z" id="path-1"></path>
        <path d="M3.31423538,0 C5.14463703,-3.36239329e-16 6.62847075,1.48383372 6.62847075,3.31423538 L6.62847075,14.6811391 L6.62847075,14.6811391 L0,14.6811391 L0,3.31423538 C-2.24159553e-16,1.48383372 1.48383372,3.36239329e-16 3.31423538,0 Z" id="path-3"></path>
        <path d="M3.31423538,0 C5.14463703,-3.36239329e-16 6.62847075,1.48383372 6.62847075,3.31423538 L6.62847075,18.141661 L6.62847075,18.141661 L0,18.141661 L0,3.31423538 C-6.68248763e-16,1.48383372 1.48383372,3.36239329e-16 3.31423538,0 Z" id="path-5"></path>
        <path d="M3.31423538,2.84217094e-14 C5.14463703,2.80854701e-14 6.62847075,1.48383372 6.62847075,3.31423538 L6.62847075,18.141661 L6.62847075,18.141661 L-1.13686838e-13,18.141661 L-1.13686838e-13,3.31423538 C-1.14355086e-13,1.48383372 1.48383372,2.87579488e-14 3.31423538,2.84217094e-14 Z" id="path-7"></path>
        <circle id="path-9" cx="12.1935988" cy="12.1935988" r="12.1935988"></circle>
        <filter x="-2.1%" y="-2.1%" width="104.1%" height="108.2%" filterUnits="objectBoundingBox" id="filter-10">
            <feOffset dx="0" dy="1" in="SourceAlpha" result="shadowOffsetOuter1"></feOffset>
            <feColorMatrix values="0 0 0 0 1   0 0 0 0 0.411764706   0 0 0 0 0  0 0 0 1 0" type="matrix" in="shadowOffsetOuter1"></feColorMatrix>
        </filter>
        <circle id="path-11" cx="9.37969135" cy="9.37969135" r="9.37969135"></circle>
        <filter x="-2.7%" y="-2.7%" width="105.3%" height="110.7%" filterUnits="objectBoundingBox" id="filter-12">
            <feOffset dx="0" dy="1" in="SourceAlpha" result="shadowOffsetOuter1"></feOffset>
            <feColorMatrix values="0 0 0 0 1   0 0 0 0 0.410893794   0 0 0 0 0  0 0 0 1 0" type="matrix" in="shadowOffsetOuter1"></feColorMatrix>
        </filter>
        <path d="M4.49350298,10.7999936 C1.76415127,7.51526536 0.280570216,5.22205253 0.0427598223,3.92035514 C-0.313955769,1.96780904 1.5825777,-0.906286809 4.93184015,0.276659777 C8.2811026,1.45960636 16.7395079,17.8711774 16.7395079,18.2503905 C16.7395079,18.5031992 12.6575062,16.0197336 4.49350298,10.7999936 Z" id="path-13"></path>
        <path d="M4.49350298,10.7999936 C1.76415127,7.51526536 0.280570216,5.22205253 0.0427598223,3.92035514 C-0.313955769,1.96780904 1.5825777,-0.906286809 4.93184015,0.276659777 C8.2811026,1.45960636 16.7395079,17.8711774 16.7395079,18.2503905 C16.7395079,18.5031992 12.6575062,16.0197336 4.49350298,10.7999936 Z" id="path-15"></path>
        <path d="M4.49350298,10.7999936 C1.76415127,7.51526536 0.280570216,5.22205253 0.0427598223,3.92035514 C-0.313955769,1.96780904 1.5825777,-0.906286809 4.93184015,0.276659777 C8.2811026,1.45960636 16.7395079,17.8711774 16.7395079,18.2503905 C16.7395079,18.5031992 12.6575062,16.0197336 4.49350298,10.7999936 Z" id="path-17"></path>
    </defs>
    <g id="-" stroke="none" stroke-width="1" fill="none" fill-rule="evenodd">
        <g id="切图" transform="translate(-218.000000, -336.000000)">
            <g id="img_AT_Use" transform="translate(218.000000, 336.000000)">
                <mask id="mask-2" fill="white">
                    <use xlink:href="#path-1"></use>
                </mask>
                <use id="蒙版" fill="#D8D8D8" opacity="0" xlink:href="#path-1"></use>
                <g id="编组-23备份" mask="url(#mask-2)">
                    <g transform="translate(65.505510, 46.064637) rotate(-5.000000) translate(-65.505510, -46.064637) translate(-1.259190, 6.028724)">
                        <g id="编组-22" stroke="none" stroke-width="1" fill="none" fill-rule="evenodd" transform="translate(73.588046, 18.551833) rotate(-5.000000) translate(-73.588046, -18.551833) translate(62.801401, 7.765188)">
                            <circle id="椭圆形" fill="#FCA022" cx="10.7866451" cy="10.7866451" r="10.7866451"></circle>
                            <circle id="椭圆形备份-22" fill="#FFD62F" cx="10.7866451" cy="10.7866451" r="8.91070678"></circle>
                            <text id="$" font-family="Circular-Black, Circular" font-size="13.1315679" font-weight="700" fill="#FF8500">
                                <tspan x="6.56578394" y="15.3449228">$</tspan>
                            </text>
                        </g>
                        <polygon id="路径-25" stroke="none" fill="#FFEBD1" fill-rule="evenodd" points="12.0377516 55.7805461 5.87732646 56.485059 7.40426246 68.5894674 28.7713722 66.5597721 25.5110525 59.0533662 18.4537117 54.936232"></polygon>
                        <path d="M19.2334648,19.6613154 C19.2334648,20.4383544 19.8633794,21.0682691 20.6404185,21.0682691 C21.4174575,21.0682691 22.0473722,20.4383544 22.0473722,19.6613154 L22.0473722,19.6613154 L23.9233104,19.6613154 C23.9233104,20.4383544 24.5532251,21.0682691 25.3302641,21.0682691 C26.1073032,21.0682691 26.7372178,20.4383544 26.7372178,19.6613154 L26.7372178,19.6613154 L28.6131561,19.6613154 C28.6131561,20.4383544 29.2430707,21.0682691 30.0201098,21.0682691 C30.7971489,21.0682691 31.4270635,20.4383544 31.4270635,19.6613154 L31.4270635,19.6613154 L33.3030018,19.6613154 C33.3030018,20.4383544 33.9329164,21.0682691 34.7099555,21.0682691 C35.4869945,21.0682691 36.1169092,20.4383544 36.1169092,19.6613154 L36.1169092,19.6613154 L37.9928474,19.6613154 C37.9928474,20.4383544 38.6227621,21.0682691 39.3998011,21.0682691 C40.1768402,21.0682691 40.8067549,20.4383544 40.8067549,19.6613154 L40.8067549,19.6613154 L42.6826931,19.6613154 C42.6826931,20.4383544 43.3126077,21.0682691 44.0896468,21.0682691 C44.8666859,21.0682691 45.4966005,20.4383544 45.4966005,19.6613154 L45.4966005,19.6613154 L47.3725388,19.6613154 C47.3725388,20.4383544 48.0024534,21.0682691 48.7794925,21.0682691 C49.5565316,21.0682691 50.1864462,20.4383544 50.1864462,19.6613154 L50.1864462,19.6613154 L52.0623845,19.6613154 C52.0623845,20.4383544 52.6922991,21.0682691 53.4693382,21.0682691 C54.2463772,21.0682691 54.8762919,20.4383544 54.8762919,19.6613154 L54.8762919,19.6613154 L56.7522301,19.6613154 C56.7522301,20.4383544 57.3821448,21.0682691 58.1591838,21.0682691 C58.9362229,21.0682691 59.5661375,20.4383544 59.5661375,19.6613154 L59.5661375,19.6613154 L61.4420758,19.6613154 C61.4420758,20.4383544 62.0719904,21.0682691 62.8490295,21.0682691 C63.6260686,21.0682691 64.2559832,20.4383544 64.2559832,19.6613154 L64.2559832,19.6613154 L66.1319215,19.6613154 C66.1319215,20.4383544 66.7618361,21.0682691 67.5388752,21.0682691 C68.3159143,21.0682691 68.9458289,20.4383544 68.9458289,19.6613154 L68.9458289,19.6613154 L70.8217672,19.6613154 C70.8217672,20.4383544 71.4516818,21.0682691 72.2287209,21.0682691 C73.0057599,21.0682691 73.6356746,20.4383544 73.6356746,19.6613154 L73.6356746,19.6613154 L75.5116128,19.6613154 C75.5116128,20.4383544 76.1415275,21.0682691 76.9185665,21.0682691 C77.6956056,21.0682691 78.3255202,20.4383544 78.3255202,19.6613154 L78.3255202,19.6613154 L80.2014585,19.6613154 C80.2014585,20.4383544 80.8313731,21.0682691 81.6084122,21.0682691 C82.3854513,21.0682691 83.0153659,20.4383544 83.0153659,19.6613154 L83.0153659,19.6613154 L84.8913042,19.6613154 C84.8913042,20.4383544 85.5212188,21.0682691 86.2982579,21.0682691 C87.075297,21.0682691 87.7052116,20.4383544 87.7052116,19.6613154 L87.7052116,19.6613154 L89.5811499,19.6613154 C89.5811499,20.4383544 90.2110645,21.0682691 90.9881036,21.0682691 C91.7651426,21.0682691 92.3950573,20.4383544 92.3950573,19.6613154 L92.3950573,19.6613154 L94.2709955,19.6613154 C94.2709955,20.4383544 94.9009102,21.0682691 95.6779492,21.0682691 C96.4549883,21.0682691 97.0849029,20.4383544 97.0849029,19.6613154 L97.0849029,19.6613154 L98.9608412,19.6613154 C98.9608412,20.4383544 99.5907558,21.0682691 100.367795,21.0682691 C101.144834,21.0682691 101.774749,20.4383544 101.774749,19.6613154 L101.774749,19.6613154 L103.650687,19.6613154 C103.650687,20.4383544 104.280602,21.0682691 105.057641,21.0682691 C105.83468,21.0682691 106.464594,20.4383544 106.464594,19.6613154 L106.464594,19.6613154 L108.340533,19.6613154 C108.340533,20.4383544 108.970447,21.0682691 109.747486,21.0682691 C110.524525,21.0682691 111.15444,20.4383544 111.15444,19.6613154 L111.15444,19.6613154 L112.092409,19.6613154 L112.092409,35.6067907 C107.948201,35.6067907 104.588656,38.9663354 104.588656,43.1105437 C104.588656,47.2547521 107.948201,50.6142968 112.092409,50.6142968 L112.092409,66.5597721 L111.15444,66.5597721 C111.15444,65.782733 110.524525,65.1528184 109.747486,65.1528184 C108.970447,65.1528184 108.340533,65.782733 108.340533,66.5597721 L108.340533,66.5597721 L106.464594,66.5597721 C106.464594,65.782733 105.83468,65.1528184 105.057641,65.1528184 C104.280602,65.1528184 103.650687,65.782733 103.650687,66.5597721 L103.650687,66.5597721 L101.774749,66.5597721 C101.774749,65.782733 101.144834,65.1528184 100.367795,65.1528184 C99.5907558,65.1528184 98.9608412,65.782733 98.9608412,66.5597721 L98.9608412,66.5597721 L97.0849029,66.5597721 C97.0849029,65.782733 96.4549883,65.1528184 95.6779492,65.1528184 C94.9009102,65.1528184 94.2709955,65.782733 94.2709955,66.5597721 L94.2709955,66.5597721 L92.3950573,66.5597721 C92.3950573,65.782733 91.7651426,65.1528184 90.9881036,65.1528184 C90.2110645,65.1528184 89.5811499,65.782733 89.5811499,66.5597721 L89.5811499,66.5597721 L87.7052116,66.5597721 C87.7052116,65.782733 87.075297,65.1528184 86.2982579,65.1528184 C85.5212188,65.1528184 84.8913042,65.782733 84.8913042,66.5597721 L84.8913042,66.5597721 L83.0153659,66.5597721 C83.0153659,65.782733 82.3854513,65.1528184 81.6084122,65.1528184 C80.8313731,65.1528184 80.2014585,65.782733 80.2014585,66.5597721 L80.2014585,66.5597721 L78.3255202,66.5597721 C78.3255202,65.782733 77.6956056,65.1528184 76.9185665,65.1528184 C76.1415275,65.1528184 75.5116128,65.782733 75.5116128,66.5597721 L75.5116128,66.5597721 L73.6356746,66.5597721 C73.6356746,65.782733 73.0057599,65.1528184 72.2287209,65.1528184 C71.4516818,65.1528184 70.8217672,65.782733 70.8217672,66.5597721 L70.8217672,66.5597721 L68.9458289,66.5597721 C68.9458289,65.782733 68.3159143,65.1528184 67.5388752,65.1528184 C66.7618361,65.1528184 66.1319215,65.782733 66.1319215,66.5597721 L66.1319215,66.5597721 L64.2559832,66.5597721 C64.2559832,65.782733 63.6260686,65.1528184 62.8490295,65.1528184 C62.0719904,65.1528184 61.4420758,65.782733 61.4420758,66.5597721 L61.4420758,66.5597721 L59.5661375,66.5597721 C59.5661375,65.782733 58.9362229,65.1528184 58.1591838,65.1528184 C57.3821448,65.1528184 56.7522301,65.782733 56.7522301,66.5597721 L56.7522301,66.5597721 L54.8762919,66.5597721 C54.8762919,65.782733 54.2463772,65.1528184 53.4693382,65.1528184 C52.6922991,65.1528184 52.0623845,65.782733 52.0623845,66.5597721 L52.0623845,66.5597721 L50.1864462,66.5597721 C50.1864462,65.782733 49.5565316,65.1528184 48.7794925,65.1528184 C48.0024534,65.1528184 47.3725388,65.782733 47.3725388,66.5597721 L47.3725388,66.5597721 L45.4966005,66.5597721 C45.4966005,65.782733 44.8666859,65.1528184 44.0896468,65.1528184 C43.3126077,65.1528184 42.6826931,65.782733 42.6826931,66.5597721 L42.6826931,66.5597721 L40.8067549,66.5597721 C40.8067549,65.782733 40.1768402,65.1528184 39.3998011,65.1528184 C38.6227621,65.1528184 37.9928474,65.782733 37.9928474,66.5597721 L37.9928474,66.5597721 L36.1169092,66.5597721 C36.1169092,65.782733 35.4869945,65.1528184 34.7099555,65.1528184 C33.9329164,65.1528184 33.3030018,65.782733 33.3030018,66.5597721 L33.3030018,66.5597721 L31.4270635,66.5597721 C31.4270635,65.782733 30.7971489,65.1528184 30.0201098,65.1528184 C29.2430707,65.1528184 28.6131561,65.782733 28.6131561,66.5597721 L28.6131561,66.5597721 L26.7372178,66.5597721 C26.7372178,65.782733 26.1073032,65.1528184 25.3302641,65.1528184 C24.5532251,65.1528184 23.9233104,65.782733 23.9233104,66.5597721 L23.9233104,66.5597721 L22.0473722,66.5597721 C22.0473722,65.782733 21.4174575,65.1528184 20.6404185,65.1528184 C19.8633794,65.1528184 19.2334648,65.782733 19.2334648,66.5597721 L19.2334648,66.5597721 L18.2954956,66.5597721 L18.2959377,50.5561873 C21.9972421,50.0944182 24.8612796,46.9369469 24.8612796,43.1105437 C24.8612796,39.2841406 21.9972421,36.1266693 18.2959377,35.6649002 L18.2954956,19.6613154 Z" id="形状结合" stroke="none" fill="#646FD2" fill-rule="evenodd"></path>
                        <text id="%" stroke="none" fill="none" font-family="Circular-Black, Circular" font-size="28" font-weight="700">
                            <tspan x="55.1324104" y="52.8312393" fill="#FFFFFF">%</tspan>
                        </text>
                        <g id="矩形" stroke="none" stroke-width="1" fill="none" fill-rule="evenodd" transform="translate(9.438567, 46.252755) rotate(-36.000000) translate(-9.438567, -46.252755) translate(6.124332, 38.912185)">
                            <mask id="mask-4" fill="white">
                                <use xlink:href="#path-3"></use>
                            </mask>
                            <use id="蒙版" fill="#FFD798" transform="translate(3.314235, 7.340570) rotate(-360.000000) translate(-3.314235, -7.340570) " xlink:href="#path-3"></use>
                            <path d="M-0.83816526,1.30961666 L0.369718968,1.30961666 C1.40577107,1.30961666 2.24565724,2.14950283 2.24565724,3.18555493 L2.24565724,5.0614932 C2.24565724,6.0975453 1.40577107,6.93743147 0.369718968,6.93743147 L-0.83816526,6.93743147 L-0.83816526,6.93743147 L-0.83816526,1.30961666 Z" fill="#FFECD5" mask="url(#mask-4)"></path>
                        </g>
                        <g id="矩形备份-18" stroke="none" stroke-width="1" fill="none" fill-rule="evenodd" transform="translate(10.095330, 33.573833)">
                            <mask id="mask-6" fill="white">
                                <use xlink:href="#path-5"></use>
                            </mask>
                            <use id="蒙版" fill="#FDDDAE" transform="translate(3.314235, 9.070830) rotate(-360.000000) translate(-3.314235, -9.070830) " xlink:href="#path-5"></use>
                            <path d="M-0.83816526,1.30961666 L0.369718968,1.30961666 C1.40577107,1.30961666 2.24565724,2.14950283 2.24565724,3.18555493 L2.24565724,5.0614932 C2.24565724,6.0975453 1.40577107,6.93743147 0.369718968,6.93743147 L-0.83816526,6.93743147 L-0.83816526,6.93743147 L-0.83816526,1.30961666 Z" id="矩形" fill="#FFECD5" mask="url(#mask-6)"></path>
                        </g>
                        <g id="矩形备份-19" stroke="none" stroke-width="1" fill="none" fill-rule="evenodd" transform="translate(18.412553, 41.528226) rotate(10.000000) translate(-18.412553, -41.528226) translate(15.098317, 32.457396)">
                            <mask id="mask-8" fill="white">
                                <use xlink:href="#path-7"></use>
                            </mask>
                            <use id="蒙版" fill="#FEE4BD" transform="translate(3.314235, 9.070830) rotate(-360.000000) translate(-3.314235, -9.070830) " xlink:href="#path-7"></use>
                            <path d="M-0.83816526,1.30961666 L0.369718968,1.30961666 C1.40577107,1.30961666 2.24565724,2.14950283 2.24565724,3.18555493 L2.24565724,5.0614932 C2.24565724,6.0975453 1.40577107,6.93743147 0.369718968,6.93743147 L-0.83816526,6.93743147 L-0.83816526,6.93743147 L-0.83816526,1.30961666 Z" id="矩形" fill="#FFECD5" mask="url(#mask-8)"></path>
                        </g>
                        <path d="M29.4392679,48.4429494 C27.8831016,47.2503671 25.9365698,46.5416571 23.8245099,46.5416571 C18.7220124,46.5416571 14.5856209,50.6780486 14.5856209,55.7805461" id="路径" stroke="#FFEBD1" stroke-width="7.50375308" fill="none" stroke-linecap="round"></path>
                        <g id="编组-22备份" stroke="none" stroke-width="1" fill="none" fill-rule="evenodd" transform="translate(116.112257, 58.782480) rotate(-330.000000) translate(-116.112257, -58.782480) translate(103.918659, 46.588882)">
                            <g id="椭圆形">
                                <use fill="black" fill-opacity="1" filter="url(#filter-10)" xlink:href="#path-9"></use>
                                <use fill="#FCA022" fill-rule="evenodd" xlink:href="#path-9"></use>
                            </g>
                            <circle id="椭圆形备份-22" fill="#FFD62F" cx="12.1935988" cy="12.1935988" r="10.0729729"></circle>
                            <text id="$" font-family="Circular-Black, Circular" font-size="14.8443811" font-weight="700" fill="#FF8500">
                                <tspan x="7.42219054" y="17.6507823">$</tspan>
                            </text>
                        </g>
                        <g id="编组-22备份-2" stroke="none" stroke-width="1" fill="none" fill-rule="evenodd" transform="translate(102.870934, 67.258930) rotate(-30.000000) translate(-102.870934, -67.258930) translate(93.491242, 57.879238)">
                            <g id="椭圆形">
                                <use fill="black" fill-opacity="1" filter="url(#filter-12)" xlink:href="#path-11"></use>
                                <use fill="#FCA022" fill-rule="evenodd" xlink:href="#path-11"></use>
                            </g>
                            <circle id="椭圆形备份-22" fill="#FFD62F" cx="9.37969135" cy="9.37969135" r="7.74844068"></circle>
                            <text id="$" font-family="Circular-Black, Circular" font-size="11.4187547" font-weight="700" fill="#FF8500">
                                <tspan x="5.70937734" y="13.0390633">$</tspan>
                            </text>
                        </g>
                        <polygon id="路径-26" stroke="none" fill="#F3F3F3" fill-rule="evenodd" points="0.168357162 56.3103682 6.85084246 55.7805461 8.34669381 69.0391189 1.37766468 69.8225564"></polygon>
                        <polygon id="路径-26备份" stroke="none" fill="#FF8A0C" fill-rule="evenodd" transform="translate(1.343817, 63.011850) rotate(-2.000000) translate(-1.343817, -63.011850) " points="0.244359788 56.0732966 1.89913434 55.9908449 2.44327443 69.7526314 0.805273886 70.0328553"></polygon>
                        <g id="路径-29备份-2" stroke="none" stroke-width="1" fill="none" fill-rule="evenodd" transform="translate(116.432419, 13.815398) rotate(40.000000) translate(-116.432419, -13.815398) translate(108.062665, 4.681444)">
                            <mask id="mask-14" fill="white">
                                <use xlink:href="#path-13"></use>
                            </mask>
                            <use id="蒙版" fill="#FEDFAA" xlink:href="#path-13"></use>
                            <path d="M4.00922021,-0.457785579 C3.14032707,0.537883504 3.02769159,1.61853484 3.67131377,2.78416842 C4.63674704,4.53261881 6.24311994,6.07164505 8.76462815,3.45303938 C10.4456336,1.70730227 8.86049764,0.403693948 4.00922021,-0.457785579 Z" id="路径-29" fill="#FFF1E0" mask="url(#mask-14)"></path>
                        </g>
                        <g id="路径-29备份" stroke="none" stroke-width="1" fill="none" fill-rule="evenodd" transform="translate(112.487300, 10.330818) rotate(9.000000) translate(-112.487300, -10.330818) translate(104.117546, 1.196864)">
                            <mask id="mask-16" fill="white">
                                <use xlink:href="#path-15"></use>
                            </mask>
                            <use id="蒙版" fill="#FFE5BB" xlink:href="#path-15"></use>
                            <path d="M4.00922021,-0.457785579 C3.14032707,0.537883504 3.02769159,1.61853484 3.67131377,2.78416842 C4.63674704,4.53261881 6.24311994,6.07164505 8.76462815,3.45303938 C10.4456336,1.70730227 8.86049764,0.403693948 4.00922021,-0.457785579 Z" id="路径-29" fill="#FFF1E0" mask="url(#mask-16)"></path>
                        </g>
                        <g id="路径-29" stroke="none" stroke-width="1" fill="none" fill-rule="evenodd" transform="translate(99.742980, 1.931338)">
                            <mask id="mask-18" fill="white">
                                <use xlink:href="#path-17"></use>
                            </mask>
                            <use id="蒙版" fill="#FFE7C5" xlink:href="#path-17"></use>
                            <path d="M4.00922021,-0.457785579 C3.14032707,0.537883504 3.02769159,1.61853484 3.67131377,2.78416842 C4.63674704,4.53261881 6.24311994,6.07164505 8.76462815,3.45303938 C10.4456336,1.70730227 8.86049764,0.403693948 4.00922021,-0.457785579 Z" fill="#FFF1E0" mask="url(#mask-18)"></path>
                        </g>
                        <path d="M109.154538,36.2613671 L108.965775,36.287216 C109.801397,35.9036839 110.719605,35.6691375 111.686389,35.6175883 C110.872042,35.9126089 110.022719,36.1282065 109.154538,36.2613671 Z M109.14147,12.0252431 C113.977768,12.7386701 117.433169,15.74725 118.885696,19.6968379 L121.672238,18.6003038 L125.877488,29.5756155 L114.059784,34.4826889 C113.437126,34.8645124 112.778449,35.1930401 112.09317,35.4654561 L112.092906,24.8624066 C112.170018,24.295881 112.168527,23.7548261 112.093337,23.2485431 L112.092409,19.6613154 L111.15444,19.6613154 L111.147999,19.7968144 C111.118172,20.1089567 110.986358,20.3913388 110.786263,20.610255 L110.743248,20.6527383 C110.063776,20.0347451 109.153546,19.6119816 108.046404,19.4486615 C106.354156,19.1990293 105.052593,19.506526 103.926487,20.4967039 C103.753174,20.2642332 103.650687,19.9747429 103.650687,19.6613154 L103.650687,19.6613154 L101.774749,19.6613154 L101.768308,19.7968144 C101.700132,20.5102824 101.099126,21.0682691 100.367795,21.0682691 C99.5907558,21.0682691 98.9608412,20.4383544 98.9608412,19.6613154 L98.9608412,19.6613154 L97.0849029,19.6613154 L97.0784623,19.7968144 C97.0155231,20.4554788 96.4984664,20.9816305 95.8439871,21.0585747 C95.5630001,20.0586582 95.6965938,18.9481662 96.3043727,18.0077025 C99.3151247,13.3489311 103.79645,11.2367719 109.14147,12.0252431 Z" id="形状结合" stroke="none" fill="#FFEBD1" fill-rule="nonzero"></path>
                        <path d="M123.396903,23.1025075 L125.877488,29.5756155 L114.059784,34.4826889 C109.46209,37.3020663 102.900537,37.2155912 98.1658799,33.0895196 C96.6037264,31.7281628 96.4409486,29.3581895 97.8023053,27.796036 C99.1182836,26.2859543 101.376758,26.0835114 102.936948,27.3014016 L103.095789,27.4324614 C106.190005,30.1289522 110.979243,28.8762272 111.852021,25.9622393 C111.92307,25.7250246 111.981132,25.4909265 112.026517,25.2605346 L123.397432,25.2607887 L123.396903,23.1025075 Z" id="形状结合" stroke="none" fill="#FFEBD1" fill-rule="nonzero"></path>
                        <polygon id="路径-30" stroke="none" fill="#FF8A0C" fill-rule="evenodd" points="121.394945 17.9814409 126.154193 30.8942756 133.5294 27.8464053 129.242628 15.0505628"></polygon>
                    </g>
                </g>
            </g>
        </g>
    </g>
</svg>