<?xml version="1.0" encoding="UTF-8"?>
<svg width="110px" height="75px" viewBox="0 0 110 75" version="1.1" xmlns="http://www.w3.org/2000/svg" xmlns:xlink="http://www.w3.org/1999/xlink">
    <title>img_AT_unused</title>
    <defs>
        <polygon id="path-1" points="0 0 3.7203582 0 3.7203582 3.7203582 0 3.7203582"></polygon>
    </defs>
    <g id="-" stroke="none" stroke-width="1" fill="none" fill-rule="evenodd">
        <g id="切图" transform="translate(-64.000000, -340.000000)">
            <g id="img_AT_Unused-2" transform="translate(64.000000, 340.000000)">
                <g id="img_AT_Unused" transform="translate(0.000000, -0.000000)">
                    <rect id="矩形" fill="#F3F4F5" x="0" y="0" width="110" height="74.2063492" rx="1.74603175"></rect>
                    <rect id="矩形备份-22" fill="#E3E5E6" x="0" y="0" width="110" height="10.9126984" rx="1.74603175"></rect>
                    <circle id="椭圆形" fill="#EF4235" cx="101.269841" cy="5.45634921" r="2.65739871"></circle>
                    <g id="编组" transform="translate(99.409662, 3.596170)">
                        <mask id="mask-2" fill="white">
                            <use xlink:href="#path-1"></use>
                        </mask>
                        <g id="Clip-3"></g>
                        <path d="M3.0154545,3.2220738 C2.64305757,3.30976704 1.62571919,3.78609385 0.939948335,3.38156853 C0.0702491266,2.87248589 0.0679626794,1.38215664 1.15451508,0.465327798 C1.40092876,0.249224436 1.72429773,0.125129085 2.06285525,0.116803394 C2.34088723,0.0959283921 2.59402961,0.266058134 2.66007527,0.518168595 C2.71197762,0.771524871 2.63198463,1.03278144 2.44433264,1.22266191 C2.36551553,1.29847432 2.27523353,1.36322633 2.17639368,1.41488208 C2.14065978,1.43536207 2.1025741,1.45201345 2.06285525,1.46453238 C1.91524874,1.51627929 1.7733257,1.51099217 1.72223993,1.35891156 C1.67530244,1.15794029 1.79364241,0.95529781 2.00040257,0.882554355 C2.0685387,0.858276151 2.30809304,0.783284152 2.21611254,0.76426268 C1.97655819,0.711452269 1.5950808,0.899448825 1.50424352,1.18674597 C1.41340623,1.47404311 1.61778196,1.6462087 1.91753519,1.60922926 C2.06788543,1.589752 2.21258488,1.54271488 2.34330433,1.470883 C2.75937241,1.30318411 3.19654112,1.1849836 3.64445614,1.1191377 C3.71259227,1.10859385 3.75799458,0.990302179 3.67738098,1.00084603 C3.35917285,1.04770084 3.04553761,1.11834767 2.73954564,1.21208767 C2.72393247,1.21652399 2.70724141,1.20920103 2.70093735,1.1951932 C2.69816095,1.18729291 2.69816095,1.17878491 2.70093735,1.170915 C2.73882704,1.12372595 2.7715559,1.07310331 2.79860131,1.0198675 C2.93144389,0.769549798 2.95528827,0.442113095 2.75091255,0.219233713 C2.51472255,-0.039531224 2.0855564,-0.0310839891 1.76649902,0.0512917443 C1.34236305,0.170677305 0.96098365,0.394802502 0.662896255,0.699844918 C0.0384348463,1.33779347 -0.302180468,2.50806975 0.359746013,3.24109527 C0.640652389,3.53544191 1.0403887,3.70797212 1.46334878,3.71745247 C2.0219605,3.75549541 2.72592495,3.40903724 2.92690366,3.31818389 C3.05177635,3.26011674 3.15169409,3.19144498 3.0154545,3.2220738" id="Fill-2" fill="#FFFFFF" mask="url(#mask-2)"></path>
                    </g>
                    <rect id="矩形" fill="#D8D8D8" x="9.65549428" y="17.0238095" width="39.2857143" height="49.7619048" rx="0.873015873"></rect>
                    <circle id="椭圆形" fill="#F05635" cx="4.44703425" cy="5.45634921" r="1.99804266"></circle>
                    <circle id="椭圆形备份-23" fill="#EDC82D" cx="9.65549428" cy="5.45634921" r="1.99804266"></circle>
                    <circle id="椭圆形备份-24" fill="#81C654" cx="14.8639543" cy="5.45634921" r="1.99804266"></circle>
                    <rect id="矩形" fill="#D8D8D8" x="55.7588685" y="18.1150794" width="43.6507937" height="5.67460317" rx="2.83730159"></rect>
                    <rect id="矩形备份-21" fill="#646FD2" x="55.7588685" y="52.1626984" width="43.6507937" height="13.531746" rx="2.83730159"></rect>
                    <text id="Apply-Coupons" font-family="Circular-Black, Circular" font-size="5" font-weight="700" fill="#FFFFFF">
                        <tspan x="59.2867653" y="60.9285714">Apply Coupons</tspan>
                    </text>
                    <rect id="矩形备份-13" fill="#D8D8D8" x="55.7588685" y="28.5912698" width="43.6507937" height="3.49206349" rx="1.74603175"></rect>
                    <rect id="矩形备份-14" fill="#D8D8D8" x="55.7588685" y="36.4484127" width="26.1904762" height="3.49206349" rx="1.74603175"></rect>
                    <rect id="矩形备份-20" fill="#D8D8D8" x="55.7588685" y="44.3055556" width="26.1904762" height="3.49206349" rx="1.74603175"></rect>
                </g>
            </g>
        </g>
    </g>
</svg>