<?xml version="1.0" encoding="UTF-8"?>
<svg width="16px" height="14px" viewBox="0 0 16 14" version="1.1" xmlns="http://www.w3.org/2000/svg" xmlns:xlink="http://www.w3.org/1999/xlink">
    <title>形状</title>
    <g id="1" stroke="none" stroke-width="1" fill="none" fill-rule="evenodd">
        <g id="1code有成功率样式" transform="translate(-109.000000, -376.000000)" fill="#FFB996" fill-rule="nonzero">
            <g id="编组-4" transform="translate(88.000000, 376.000000)">
                <path d="M34.7429274,10.0796282 C35.1217712,10.3155364 35.4259942,10.6300807 35.6555965,11.0232611 C35.8851988,11.4164415 36,11.84894 36,12.3207564 C36,12.6914694 35.9282493,13.0369064 35.7847478,13.3570676 C35.6412464,13.6772288 35.4460845,13.9552635 35.199262,14.1911717 C34.9524395,14.42708 34.6654367,14.6152449 34.3382534,14.7556664 C34.0110701,14.896088 33.6580566,14.9662988 33.2792128,14.9662988 C32.797048,14.9662988 32.3579336,14.8539616 31.9618696,14.629287 C31.5658057,14.4046125 31.2472325,14.1125357 31.0061501,13.7530564 C30.9602296,13.7081215 30.9200492,13.6603782 30.8856089,13.6098264 C30.8511685,13.5592747 30.8052481,13.5059145 30.7478475,13.4497458 C30.5641657,13.2026039 30.4493645,12.8992933 30.403444,12.5398141 C30.3575236,12.1803349 30.3403034,11.8068135 30.3517835,11.41925 C30.3632637,11.0316864 30.3747438,10.6497397 30.3862239,10.2734099 C30.397704,9.89708012 30.3690037,9.56287678 30.300123,9.27079992 C30.1738417,9.0461254 30.0303403,8.80179187 29.8696187,8.53779931 C29.7088971,8.27380676 29.5309553,8.00700578 29.3357934,7.73739637 C29.301353,7.69246146 29.2697827,7.65314342 29.2410824,7.61944225 C29.2123821,7.58574107 29.1865519,7.5520399 29.1635916,7.51833871 C28.9454695,7.7767144 28.7330873,8.03509009 28.5264453,8.29346578 C28.3198032,8.55184147 28.1074211,8.82145088 27.8892989,9.10229402 C27.8318983,9.16969638 27.7831078,9.23709873 27.7429274,9.30450109 C27.702747,9.37190345 27.6539565,9.4393058 27.596556,9.50670816 C27.4932349,9.72014894 27.4415744,9.90550541 27.4415744,10.0627776 C27.4415744,10.2200497 27.4616646,10.3745135 27.501845,10.5261688 C27.5420254,10.6778241 27.5879459,10.8322878 27.6396064,10.98956 C27.6912669,11.1468321 27.7199672,11.3293802 27.7257073,11.5372041 C27.7314473,11.745028 27.702747,11.9893615 27.6396064,12.2702047 C27.5764657,12.5510478 27.4530545,12.8880596 27.2693727,13.28124 C27.0742107,13.7867576 26.7470275,14.1995971 26.2878229,14.5197582 C25.8286183,14.8399194 25.3062731,15 24.7207872,15 C24.3419434,15 23.9889299,14.9297892 23.6617466,14.7893676 C23.3345633,14.6489461 23.0475605,14.4579727 22.800738,14.2164476 C22.5539155,13.9749225 22.3587536,13.6940794 22.2152522,13.3739182 C22.0717507,13.053757 22,12.70832 22,12.337607 C22,11.9331929 22.0861009,11.5568631 22.2583026,11.2086176 C22.4305043,10.8603721 22.6658467,10.5626784 22.9643296,10.3155364 C23.2513325,10.0234596 23.5526855,9.77912602 23.8683887,9.58253581 C24.1840918,9.38594561 24.496925,9.20339757 24.8068881,9.03489169 C25.1168512,8.86638582 25.4124641,8.69787993 25.6937269,8.52937404 C25.9749898,8.36086814 26.2189422,8.15866108 26.4255842,7.92275285 C26.4715047,7.86658422 26.5145551,7.81041559 26.5547355,7.75424697 C26.5949159,7.69807835 26.6379664,7.64190972 26.6838868,7.58574109 L26.701107,7.5688905 C26.7470275,7.4790207 26.8101681,7.39476776 26.8905289,7.31613168 C27.0512505,7.11392462 27.2119721,6.90329226 27.3726937,6.68423461 C27.5334153,6.46517695 27.699877,6.24331087 27.8720787,6.01863637 C27.5735957,5.71532578 27.3181632,5.46818381 27.105781,5.27721047 C26.8933989,5.08623713 26.6896269,4.86156261 26.4944649,4.60318694 C26.0926609,4.08643556 25.7539975,3.54721673 25.4784748,2.98553045 C25.202952,2.42384418 24.9905699,1.89024221 24.8413284,1.38472456 C24.6920869,0.879206903 24.6145961,0.427049449 24.6088561,0.0282521964 C24.603116,-0.370545057 24.6748667,-0.665430355 24.8241082,-0.8564037 C24.904469,-0.912572332 25.0192702,-0.954698803 25.1685117,-0.982783113 C25.3177532,-1.01086742 25.4382944,-0.957507228 25.5301353,-0.822702527 C25.7367774,-0.519391941 25.9721197,-0.171146447 26.2361623,0.222033955 C26.500205,0.615214357 26.7872079,1.0392875 27.0971709,1.49425339 C27.407134,1.94921927 27.7285773,2.42384418 28.0615006,2.91812811 C28.3944239,3.41241204 28.7273472,3.9010791 29.0602706,4.3841293 C29.1291513,4.29425949 29.1951619,4.20158126 29.2583025,4.10609459 C29.3214432,4.01060792 29.3874538,3.91792969 29.4563345,3.82805988 C29.7662976,3.38994459 30.0647806,2.93778713 30.3517835,2.47158752 C30.6387863,2.00538791 30.905699,1.55884732 31.1525215,1.13196575 C31.3993439,0.705084173 31.6174661,0.32032907 31.806888,-0.0222995624 C31.9963099,-0.364928194 32.1426814,-0.626112315 32.2460024,-0.805851924 C32.3263632,-0.929422901 32.4641246,-0.994016821 32.6592865,-0.999633683 C32.8544485,-1.00525055 33.0209101,-0.946273488 33.1586715,-0.82270251 C33.2275522,-0.755300154 33.2878228,-0.56151839 33.3394833,-0.241357217 C33.3911438,0.0788039552 33.3739237,0.491643369 33.2878228,0.997161024 C33.201722,1.50267868 33.0180401,2.08402398 32.7367773,2.74119692 C32.4555145,3.39836986 32.0164001,4.09766928 31.4194341,4.83909518 L30.8683886,5.51311871 C30.6847068,5.73779323 30.4952849,5.96246774 30.300123,6.18714225 C30.5641656,6.58032264 30.8138581,6.95103558 31.0492004,7.29928107 C31.2845428,7.64752657 31.499795,7.96207088 31.6949569,8.24291402 C31.9819598,8.53499088 32.2718327,8.76528226 32.5645756,8.93378814 C32.8573185,9.10229403 33.1357113,9.24552403 33.3997539,9.36347814 C33.6637966,9.48143226 33.910619,9.59096108 34.1402213,9.69206461 C34.3698236,9.79316814 34.5707256,9.92235598 34.7429274,10.0796281 L34.7429274,10.0796282 Z M24.5096774,14 C24.9225806,14 25.2741935,13.8525641 25.5645161,13.5576923 C25.8548387,13.2628205 26,12.9102564 26,12.5 C26,12.0897436 25.8548387,11.7371795 25.5645161,11.4423077 C25.2741935,11.1474359 24.9225806,11 24.5096774,11 C24.0967742,11 23.7419355,11.1474359 23.4451613,11.4423077 C23.1483871,11.7371795 23,12.0897436 23,12.5 C23,12.9102564 23.1483871,13.2628205 23.4451613,13.5576923 C23.7419355,13.8525641 24.0967742,14 24.5096774,14 Z M33.5096774,14 C33.9225806,14 34.2741935,13.8548387 34.5645161,13.5645161 C34.8548387,13.2741935 35,12.9225806 35,12.5096774 C35,12.0967742 34.8548387,11.7419355 34.5645161,11.4451613 C34.2741935,11.1483871 33.9225806,11 33.5096774,11 C33.0967742,11 32.7419355,11.1483871 32.4451613,11.4451613 C32.1483871,11.7419355 32,12.0967742 32,12.5096774 C32,12.716129 32.0387097,12.9096774 32.116129,13.0903226 C32.1935484,13.2709677 32.3,13.4290323 32.4354839,13.5645161 C32.5709677,13.7 32.7322581,13.8064516 32.9193548,13.883871 C33.1064516,13.9612903 33.3032258,14 33.5096774,14 Z" id="形状" transform="translate(29.000000, 7.000000) rotate(90.000000) translate(-29.000000, -7.000000) "></path>
            </g>
        </g>
    </g>
</svg>