<?xml version="1.0" encoding="UTF-8"?>
<svg width="26px" height="24px" viewBox="0 0 26 24" version="1.1" xmlns="http://www.w3.org/2000/svg" xmlns:xlink="http://www.w3.org/1999/xlink">
    <title>路径备份</title>
    <g id="页面-1" stroke="none" stroke-width="1" fill="none" fill-rule="evenodd">
        <g id="FAB最短高度" transform="translate(-295.000000, -344.000000)" fill-rule="nonzero" stroke="#999999">
            <path d="M318.261452,348.095971 C318.012877,347.769828 317.784768,347.498812 317.553179,347.249282 C314.697783,344.172676 311.571866,344.478594 308.716525,346.799803 C308.462361,347.006419 308.22247,347.220906 307.996662,347.438895 C307.770854,347.220906 307.530936,347.006419 307.276772,346.799803 C304.421431,344.478594 301.295514,344.172676 298.440118,347.249254 C298.208529,347.498784 297.98042,347.7698 297.755817,348.062665 C294.293408,353.187111 296.196749,358.272174 301.318939,362.874618 C302.452007,363.892712 303.663212,364.808562 304.874417,365.609423 C305.298554,365.889878 305.692882,366.136215 306.04754,366.346669 C306.262389,366.474151 306.417759,366.562165 306.503868,366.608861 C306.634252,366.688695 306.764334,366.749621 306.892909,366.794216 C306.985813,366.838559 307.094142,366.87884 307.220032,366.914331 C307.899484,367.105904 308.906196,366.966573 309.518223,366.592278 C309.575566,366.562137 309.730935,366.474151 309.945785,366.346669 C310.300442,366.136215 310.694743,365.889878 311.118908,365.609423 C312.330112,364.808562 313.541317,363.892712 314.674385,362.874618 C319.796548,358.272174 321.699889,353.187111 318.261452,348.095971 Z" id="路径备份"></path>
        </g>
    </g>
</svg>