<?xml version="1.0" standalone="no"?><!DOCTYPE svg PUBLIC "-//W3C//DTD SVG 1.1//EN" "http://www.w3.org/Graphics/SVG/1.1/DTD/svg11.dtd"><svg t="1625565381539" class="icon" viewBox="0 0 1024 1024" version="1.1" xmlns="http://www.w3.org/2000/svg" p-id="13155" width="30" height="30" xmlns:xlink="http://www.w3.org/1999/xlink"><defs><style type="text/css"></style></defs><path d="M425.371333 401.440931l-44.01064 164.451111L162.208596 507.197536l13.00454-126.768665A28.364233 28.364233 0 0 1 209.106858 355.750965l216.264475 45.669487z" fill="#FEE400" p-id="13156"></path><path d="M404.01112 407.154737l120.338073 120.419992 160.457591-160.416632-74.648107-103.299054a28.364233 28.364233 0 0 0-41.696446-4.382633l-164.451111 147.698806z" fill="#FEE400" p-id="13157"></path><path d="M139.885842 583.914082l602.591468-161.461091 102.746106 383.459851a56.728465 56.728465 0 0 1-40.099038 69.46677l-493.02566 132.093359a56.728465 56.728465 0 0 1-69.466771-40.099038L139.885842 583.914082z" fill="#E6E9B0" p-id="13158"></path><path d="M763.059299 827.928401l-102.746105-383.45985-520.427352 139.46601 102.746105 383.439372a56.728465 56.728465 0 0 0 69.466771 40.099038l410.861543-110.077799a56.728465 56.728465 0 0 0 40.099038-69.466771z" fill="#F2F5C8" p-id="13159" data-spm-anchor-id="a313x.7781069.0.i0" class="selected"></path><path d="M145.271975 494.397792l547.788084-146.777224c54.782904-14.683866 89.51629 5.386132 104.200156 60.148557 14.683866 54.782904-5.386132 89.51629-60.148557 104.200156l-547.829044 146.777224c-54.762425 14.683866-89.49581-5.365653-104.179676-60.148557-14.663387-54.782904 5.386132-89.49581 60.169037-104.200156z" fill="#FFC800" p-id="13160"></path><path d="M337.0019 443.034979l164.328233-44.031119 44.03112 164.328233-164.328234 44.03112z" fill="#FEE400" p-id="13161"></path><path d="M381.033019 607.383692l164.348713-44.031119 95.393932 356.058159-164.328233 44.031119z" fill="#FFC800" p-id="13162"></path><path d="M337.0019 443.034979a85.072219 85.072219 0 1 1 164.328233-44.031119l-164.328233 44.031119z" fill="#FEE400" p-id="13163"></path><path d="M727.035699 86.915382l66.865863-19.947121L813.930601 0.02048l22.01556 66.947781 64.858863 19.947121-64.858863 20.172396-22.01556 66.702026-20.029039-66.702026z" fill="#FEE400" p-id="13164"></path><path d="M829.433651 262.732665l44.584069-13.291254 13.332213-44.625027 14.683866 44.645507 43.252895 13.270774-43.252895 13.455091-14.683866 44.481671-13.332213-44.481671z" fill="#FEA300" p-id="13165"></path></svg>