<?xml version="1.0" encoding="UTF-8"?>
<svg width="20px" height="20px" viewBox="0 0 20 20" version="1.1" xmlns="http://www.w3.org/2000/svg" xmlns:xlink="http://www.w3.org/1999/xlink">
    <title>形状</title>
    <g id="页面-1" stroke="none" stroke-width="1" fill="none" fill-rule="evenodd">
        <g id="收藏列表" transform="translate(-35.000000, -572.000000)" fill="#F03D30" fill-rule="nonzero">
            <g id="编组-14" transform="translate(19.000000, 562.000000)">
                <path d="M35.9447258,16.9133766 C35.4282551,9.09238617 32.5165202,10.0356212 32.5165202,10.0356212 C32.5165202,10.0356212 28.6034646,14.8539801 19.4888119,15.2758158 L19.4888119,22.0356668 C19.4888119,22.0356668 23.3623416,22.2321741 25.8814535,22.9396004 C28.4005654,23.6470266 30.0922702,24.0452814 32.3900376,26.0051142 C32.3900376,26.0051142 36.5218027,25.6723618 35.9447258,16.9133766 Z M16,15.3911001 L18.4901263,15.3911001 L18.4901263,21.9858849 L16,21.9858849 L16,15.3911001 Z M24.740475,26.2880847 C23.7655049,25.1169012 23.4677438,23.6077252 23.4677438,23.6077252 L21.1304507,23.6077252 C21.1304507,26.0051142 23.3070055,29.0313266 23.76814,29.6391891 C24.2292745,30.2470517 24.8063514,29.9745616 26.1317837,29.6391891 C27.4545809,29.3038167 26.3794788,27.964947 26.3794788,27.964947 C26.3794788,27.964947 25.7154451,27.4592682 24.740475,26.2880847 Z" id="形状"></path>
            </g>
        </g>
    </g>
</svg>