<?xml version="1.0" encoding="UTF-8"?>
<svg width="19px" height="19px" viewBox="0 0 19 19" version="1.1" xmlns="http://www.w3.org/2000/svg" xmlns:xlink="http://www.w3.org/1999/xlink">
    <title>Review button 4</title>
    <g id="页面-1" stroke="none" stroke-width="1" fill="none" fill-rule="evenodd">
        <g id="编组-16" transform="translate(-227.750000, -71.000000)">
            <g id="编组-3备份" transform="translate(228.250000, 70.491987)">
                <g id="币icon" transform="translate(0.000000, 1.000000)">
                    <circle id="椭圆形" stroke="#F25D53" stroke-width="1.58823529" cx="9" cy="9" r="8.20588235"></circle>
                    <g id="$" transform="translate(5.727857, 3.323571)" fill="#F25D53" fill-rule="nonzero">
                        <path d="M2.72571429,11.3528571 L2.72571429,9.97714286 C2.27142857,9.9 1.87928571,9.76714286 1.54928571,9.57857143 C1.21928571,9.39 0.942857143,9.16928571 0.72,8.91642857 C0.497142857,8.66357143 0.327857143,8.39571429 0.212142857,8.11285714 C0.0964285714,7.83 0.0257142857,7.55571429 0,7.29 L1.77428571,6.89142857 C1.79142857,7.08 1.83642857,7.26 1.90928571,7.43142857 C1.98214286,7.60285714 2.08714286,7.75285714 2.22428571,7.88142857 C2.36142857,8.01 2.53285714,8.11285714 2.73857143,8.19 C2.94428571,8.26714286 3.18428571,8.30571429 3.45857143,8.30571429 C3.78428571,8.30571429 4.05,8.23285714 4.25571429,8.08714286 C4.46142857,7.94142857 4.56428571,7.74428571 4.56428571,7.49571429 C4.56428571,7.12714286 4.29857143,6.88285714 3.76714286,6.76285714 L2.62285714,6.49285714 C1.89428571,6.32142857 1.32428571,6.02571429 0.912857143,5.60571429 C0.501428571,5.18571429 0.295714286,4.66714286 0.295714286,4.05 C0.295714286,3.69 0.36,3.36 0.488571429,3.06 C0.617142857,2.76 0.790714286,2.49642857 1.00928571,2.26928571 C1.22785714,2.04214286 1.485,1.85357143 1.78071429,1.70357143 C2.07642857,1.55357143 2.39142857,1.44857143 2.72571429,1.38857143 L2.72571429,0 L4.20428571,0 L4.20428571,1.42714286 C4.55571429,1.50428571 4.86214286,1.62214286 5.12357143,1.78071429 C5.385,1.93928571 5.60571429,2.11714286 5.78571429,2.31428571 C5.96571429,2.51142857 6.10928571,2.72571429 6.21642857,2.95714286 C6.32357143,3.18857143 6.39857143,3.41142857 6.44142857,3.62571429 L4.65428571,4.10142857 C4.63714286,3.99857143 4.60714286,3.88714286 4.56428571,3.76714286 C4.52142857,3.64714286 4.45071429,3.53142857 4.35214286,3.42 C4.25357143,3.30857143 4.125,3.21642857 3.96642857,3.14357143 C3.80785714,3.07071429 3.6,3.03428571 3.34285714,3.03428571 C2.98285714,3.03428571 2.71285714,3.12214286 2.53285714,3.29785714 C2.35285714,3.47357143 2.26285714,3.66428571 2.26285714,3.87 C2.26285714,4.23857143 2.51571429,4.48285714 3.02142857,4.60285714 L4.14,4.84714286 C4.56857143,4.94142857 4.935,5.07428571 5.23928571,5.24571429 C5.54357143,5.41714286 5.79214286,5.61214286 5.985,5.83071429 C6.17785714,6.04928571 6.31928571,6.29142857 6.40928571,6.55714286 C6.49928571,6.82285714 6.54428571,7.10142857 6.54428571,7.39285714 C6.54428571,7.69285714 6.49285714,7.98 6.39,8.25428571 C6.28714286,8.52857143 6.135,8.78142857 5.93357143,9.01285714 C5.73214286,9.24428571 5.48571429,9.44142857 5.19428571,9.60428571 C4.90285714,9.76714286 4.57285714,9.88285714 4.20428571,9.95142857 L4.20428571,11.3528571 L2.72571429,11.3528571 Z" id="路径"></path>
                    </g>
                </g>
            </g>
        </g>
    </g>
</svg>