<?xml version="1.0" encoding="UTF-8"?>
<svg width="12px" height="12px" viewBox="0 0 12 12" version="1.1" xmlns="http://www.w3.org/2000/svg" xmlns:xlink="http://www.w3.org/1999/xlink">
    <title>复制</title>
    <g id="页面-1" stroke="none" stroke-width="1" fill="none" fill-rule="evenodd">
        <g id="AT测试过-code支持可复制" transform="translate(-211.000000, -118.000000)">
            <g id="编组-11" transform="translate(20.000000, 64.000000)">
                <g id="文案" transform="translate(20.000000, 12.000000)">
                    <g id="编组-3" transform="translate(0.000000, 37.000000)">
                        <g id="copy" transform="translate(171.000000, 3.000000)">
                            <g id="复制" transform="translate(0.000000, 2.000000)">
                                <rect id="矩形" fill="#D8D8D8" opacity="0" x="0" y="0" width="12" height="12"></rect>
                                <g id="编组-21" transform="translate(1.000000, 2.000000)" fill="#999999" fill-rule="nonzero">
                                    <path d="M6,0 C6.55228475,0 7,0.44771525 7,1 L7,6 C7,6.55228475 6.55228475,7 6,7 L1,7 C0.44771525,7 0,6.55228475 0,6 L0,1 C0,0.44771525 0.44771525,0 1,0 L6,0 Z M6,6 L6,1 L1,1 L1,6 L6,6 Z" id="矩形"></path>
                                    <path d="M9,2 C9.55228475,2 10,2.44771525 10,3 L10,8 C10,8.55228475 9.55228475,9 9,9 L4,9 C3.44771525,9 3,8.55228475 3,8 L3,3 C3,2.44771525 3.44771525,2 4,2 L9,2 Z M9,3 L4,3 L4,8 L9,8 L9,3 Z" id="矩形备份-13"></path>
                                </g>
                            </g>
                        </g>
                    </g>
                </g>
            </g>
        </g>
    </g>
</svg>