<?xml version="1.0" encoding="UTF-8"?>
<svg width="90px" height="40px" viewBox="0 0 90 40" version="1.1" xmlns="http://www.w3.org/2000/svg" xmlns:xlink="http://www.w3.org/1999/xlink">
    <title>img_turnon</title>
    <defs>
        <linearGradient x1="50%" y1="0%" x2="50%" y2="27.2803303%" id="linearGradient-1">
            <stop stop-color="#EDA1A0" offset="0%"></stop>
            <stop stop-color="#F8BDBC" offset="100%"></stop>
        </linearGradient>
        <linearGradient x1="81.7462759%" y1="51.1548515%" x2="45.9302122%" y2="56.9534044%" id="linearGradient-2">
            <stop stop-color="#F4B2B1" offset="0%"></stop>
            <stop stop-color="#E18A88" offset="100%"></stop>
        </linearGradient>
    </defs>
    <g id="页面-1" stroke="none" stroke-width="1" fill="none" fill-rule="evenodd">
        <g id="文案二" transform="translate(-268.000000, -283.000000)" fill-rule="nonzero">
            <g id="编组-25" transform="translate(18.000000, 237.000000)">
                <g id="img_turnon" transform="translate(250.000000, 46.000000)">
                    <ellipse id="椭圆形" fill="url(#linearGradient-1)" cx="45" cy="29" rx="45" ry="11"></ellipse>
                    <polygon id="路径-11" fill="url(#linearGradient-2)" points="40 28 42.525927 28 59 25.6129692 45.1238992 20"></polygon>
                    <g id="编组-11" opacity="0.699999988" transform="translate(16.000000, 16.000000)">
                        <path d="M1.48805082,6.77798599 L2.51194916,6.77798599 L2.51194916,10.4269394 C2.51194916,10.743432 2.28274171,11 1.99999999,11 C1.71725827,11 1.48805082,10.743432 1.48805082,10.4269394 L1.48805082,6.77798599 L1.48805082,6.77798599 Z" id="矩形" fill="#C52723"></path>
                        <polygon id="路径-10" fill="#F58D8A" points="1.99999999 0 1.99999999 8.888993 -1.54867396e-19 7.3840736"></polygon>
                        <polygon id="路径-10备份" fill="#D93F3B" transform="translate(3.000000, 4.444496) scale(-1, 1) translate(-3.000000, -4.444496) " points="4 0 4 8.888993 2.00000001 7.3840736"></polygon>
                    </g>
                    <g id="编组-11备份-3" opacity="0.699999988" transform="translate(58.000000, 23.000000)">
                        <path d="M1.11603812,4.92944436 L1.88396188,4.92944436 L1.88396188,7.59044066 C1.88396188,7.81663404 1.71205629,8 1.5,8 C1.28794371,8 1.11603812,7.81663404 1.11603812,7.59044066 L1.11603812,4.92944436 L1.11603812,4.92944436 Z" id="矩形" fill="#C52723"></path>
                        <polygon id="路径-10" fill="#F58D8A" points="1.5 0 1.5 6.46472218 0 5.37023534"></polygon>
                        <polygon id="路径-10备份" fill="#D93F3B" transform="translate(2.250000, 3.232361) scale(-1, 1) translate(-2.250000, -3.232361) " points="3 0 3 6.46472218 1.5 5.37023534"></polygon>
                    </g>
                    <g id="编组-11备份-4" opacity="0.699999988" transform="translate(70.000000, 19.000000)">
                        <path d="M0.372012707,2.46472218 L0.627987295,2.46472218 L0.627987295,3.82935027 C0.627987295,3.92359751 0.57068543,4 0.5,4 C0.42931457,4 0.372012707,3.92359751 0.372012707,3.82935027 L0.372012707,2.46472218 L0.372012707,2.46472218 Z" id="矩形" fill="#C52723"></path>
                        <polygon id="路径-10" fill="#F58D8A" points="0.5 0 0.5 3.23236109 -3.87168492e-20 2.68511767"></polygon>
                        <polygon id="路径-10备份" fill="#D93F3B" transform="translate(0.750000, 1.616181) scale(-1, 1) translate(-0.750000, -1.616181) " points="1 0 1 3.23236109 0.5 2.68511767"></polygon>
                    </g>
                    <g id="编组-6" transform="translate(28.000000, 0.000000)">
                        <ellipse id="椭圆形" fill="#BE3C3A" cx="15.0355079" cy="13.8957476" rx="13.9644921" ry="13.8957476"></ellipse>
                        <ellipse id="椭圆形备份-10" fill="#FFDFDF" cx="13.5583144" cy="14.1042524" rx="13.5583144" ry="13.8957476"></ellipse>
                        <path d="M13.5547941,4.67981382 C14.5776403,4.67981382 15.4068209,5.52963075 15.4068209,6.57793305 C15.4068209,6.61230222 15.4059101,6.64666504 15.4040895,6.68098352 L14.8156379,17.7732287 C14.7799973,18.4450506 14.238077,18.9710803 13.5816009,18.9710803 C12.9244357,18.9710803 12.3812775,18.4458691 12.3430848,17.7734872 L11.7129816,6.68055181 C11.6537641,5.63803109 12.4303664,4.74370108 13.4475714,4.68300983 C13.4832745,4.68087961 13.5190305,4.67981382 13.5547941,4.67981382 Z M13.5547941,23.528691 C14.4736684,23.528691 15.2185631,22.7652576 15.2185631,21.8235148 C15.2185631,20.881772 14.4736684,20.1183386 13.5547941,20.1183386 C12.6359198,20.1183386 11.891025,20.881772 11.891025,21.8235148 C11.891025,22.7652576 12.6359198,23.528691 13.5547941,23.528691 Z" id="形状结合" fill="#BE3C3A"></path>
                    </g>
                </g>
            </g>
        </g>
    </g>
</svg>