<?xml version="1.0" encoding="UTF-8"?>
<svg width="101px" height="79px" viewBox="0 0 101 79" version="1.1" xmlns="http://www.w3.org/2000/svg" xmlns:xlink="http://www.w3.org/1999/xlink">
    <title>1</title>
    <defs>
        <linearGradient x1="50%" y1="0%" x2="50%" y2="100%" id="linearGradient-1">
            <stop stop-color="#F69387" offset="0%"></stop>
            <stop stop-color="#EA5A4F" offset="100%"></stop>
        </linearGradient>
        <linearGradient x1="50%" y1="0%" x2="50%" y2="100%" id="linearGradient-2">
            <stop stop-color="#F69387" offset="0%"></stop>
            <stop stop-color="#EA5A4F" offset="100%"></stop>
        </linearGradient>
    </defs>
    <g id="1" stroke="none" stroke-width="1" fill="none" fill-rule="evenodd">
        <g transform="translate(1.000000, 0.000000)">
            <path d="M9.6024474,19.1120718 C16.7171176,19.3203189 23.2001766,20.8703769 29.0516243,23.7622458" stroke="url(#linearGradient-1)" stroke-linecap="round"></path>
            <path d="M89.2419405,47.865929 L53.6251912,12.0392916 C52.8702243,11.2754539 51.8216591,10.6177049 50.563381,10.0660443 C49.2631602,9.51438381 48.1097386,9.25977127 47.0611735,9.25977127 L34.5622772,9.25977127 C33.5137121,9.25977127 32.6119461,9.66290784 31.8569792,10.4267455 C31.1020123,11.1905831 30.7035576,12.1029447 30.7035576,13.1638303 L30.7035576,25.7671514 C30.7035576,26.828037 30.9552132,28.0374466 31.5004671,29.3105093 C32.045721,30.6260075 32.6538887,31.6444577 33.4507983,32.4082953 L69.0675475,68.2773681 C69.8225144,69.0412058 70.7242804,69.3806891 71.7728456,69.3806891 C72.8214107,69.3806891 73.7231767,69.019988 74.5200862,68.2773681 L89.2419405,53.3825342 C89.9339935,52.6186966 90.3324482,51.7063349 90.3324482,50.6454493 C90.3324482,49.5845637 89.975936,48.6722021 89.2419405,47.865929 Z M43.0137122,21.7570038 C42.2587453,22.5208414 41.3569793,22.8815425 40.3084142,22.8815425 C39.259849,22.8815425 38.358083,22.5208414 37.6031161,21.7570038 C36.8481492,20.9931661 36.4916371,20.0808045 36.4916371,19.0199189 C36.4916371,17.9590333 36.8481492,17.0466717 37.6031161,16.282834 C38.358083,15.5189964 39.259849,15.1582953 40.3084142,15.1582953 C41.3569793,15.1582953 42.2587453,15.5189964 43.0137122,16.282834 C43.7686791,17.0466717 44.1042199,17.9590333 44.1042199,19.0199189 C44.1671338,20.1020222 43.7686791,20.9931661 43.0137122,21.7570038 L43.0137122,21.7570038 L43.0137122,21.7570038 Z" fill="#FFE1D1" fill-rule="nonzero" transform="translate(60.518003, 39.320230) rotate(-23.000000) translate(-60.518003, -39.320230) "></path>
            <path d="M1.83926749,18.8286941 C0.528787193,18.8286941 -0.602458242,19.6179991 0.359424534,20.6529379 C5.59203288,26.1735978 14.9487587,35.8301307 31.4943533,28.9091055 C32.8438713,28.5611611 32.5209992,27.6728329 31.5864186,26.8436299" stroke="url(#linearGradient-2)" stroke-linecap="round"></path>
        </g>
    </g>
</svg>