<?xml version="1.0" encoding="UTF-8"?>
<svg width="48px" height="48px" viewBox="0 0 48 48" version="1.1" xmlns="http://www.w3.org/2000/svg" xmlns:xlink="http://www.w3.org/1999/xlink">
    <title>编组 2</title>
    <defs>
        <polygon id="path-1" points="0 0 33.4545455 0 33.4545455 33.4545455 0 33.4545455"></polygon>
    </defs>
    <g id="页面-1" stroke="none" stroke-width="1" fill="none" fill-rule="evenodd">
        <g id="mini-CB" transform="translate(-80.000000, -90.000000)">
            <g id="编组-2" transform="translate(80.000000, 90.000000)">
                <circle id="椭圆形" fill="#EA5A4F" cx="24" cy="24" r="24"></circle>
                <g id="编组" transform="translate(7.272727, 7.272727)">
                    <mask id="mask-2" fill="white">
                        <use xlink:href="#path-1"></use>
                    </mask>
                    <g id="Clip-3"></g>
                    <path d="M27.1158459,28.9738269 C23.7671441,29.76239 14.6189409,34.0456596 8.45228943,30.40805 C0.631700625,25.8302305 0.611140225,12.4287555 10.3817361,4.18436321 C12.5975598,2.24109878 15.5053879,1.12519721 18.5497957,1.05033016 C21.0499404,0.862616066 23.3262704,2.3924723 23.9201722,4.65952306 C24.3868933,6.93777655 23.667573,9.28707177 21.9801516,10.9945323 C21.2714053,11.6762596 20.4595632,12.2585286 19.5707664,12.7230321 C19.2494368,12.9071942 18.9069592,13.0569283 18.5497957,13.1695021 C17.222475,13.6348254 15.9462616,13.5872821 15.4868835,12.2197288 C15.0648079,10.4125366 16.1289554,8.59031638 17.9882031,7.93618603 C18.600903,7.71786935 20.7550455,7.04351943 19.92793,6.87247281 C17.7737875,6.3975862 14.3434315,8.08810603 13.5265962,10.6715657 C12.7097609,13.2550254 14.5475669,14.8031885 17.2430354,14.4706586 C18.5950286,14.2955134 19.8962082,13.8725419 21.0716757,13.2266087 C24.8130811,11.7186114 28.7442296,10.6557179 32.772012,10.0636125 C33.3847119,9.9687991 33.7929827,8.90508587 33.0680817,8.99989925 C30.2066615,9.42123133 27.386362,10.0565083 24.634793,10.8994457 C24.4943949,10.9393384 24.3443039,10.8734881 24.287616,10.7475257 C24.2626498,10.676484 24.2626498,10.5999775 24.287616,10.529209 C24.6283312,10.1048713 24.9226386,9.64965781 25.1658388,9.17094587 C26.360398,6.92001612 26.5748136,3.97560983 24.7370076,1.97141346 C22.6131182,-0.35547629 18.7539311,-0.279516291 15.8848741,0.461230316 C12.0709199,1.53478008 8.64144512,3.55017919 5.96095636,6.29320951 C0.345617342,12.0298288 -2.71729485,22.5532943 3.23494101,29.1448735 C5.76093304,31.7917242 9.35547844,33.3431662 13.1588588,33.4284163 C18.1820583,33.7705095 24.5123118,30.6550566 26.319571,29.8380768 C27.4424625,29.3159201 28.340952,28.6984036 27.1158459,28.9738269" id="Fill-2" fill="#FFFFFF" mask="url(#mask-2)"></path>
                </g>
            </g>
        </g>
    </g>
</svg>