<?xml version="1.0" encoding="UTF-8"?>
<svg width="56px" height="48px" viewBox="0 0 56 48" version="1.1" xmlns="http://www.w3.org/2000/svg" xmlns:xlink="http://www.w3.org/1999/xlink">
    <title>形状</title>
    <g id="页面-1" stroke="none" stroke-width="1" fill="none" fill-rule="evenodd">
        <g id="暂无商家" transform="translate(-160.000000, -734.000000)" fill="#CCCCCC" fill-rule="nonzero">
            <g id="编组-13" transform="translate(0.000000, 620.000000)">
                <g id="编组-11" transform="translate(99.000000, 114.000000)">
                    <path d="M108.917075,15.031131 L69.0891663,15.031131 L61,29.6965717 L61,48 L117,48 L117,29.6965717 L108.917075,15.031131 Z M96.1154704,29.8605018 C96.1154704,33.8263497 92.9322336,37.041902 89,37.041902 C85.0677664,37.041902 81.8845296,33.8263497 81.8845296,29.8605018 L64.3392778,29.8605018 L70.8181008,17.3765927 L107.175658,17.3765927 L113.654481,29.8605018 L96.1154704,29.8605018 Z M88.3508694,0 L90.7913509,0 L90.7913509,8.86483646 L88.3508694,8.86483646 L88.3508694,0 Z M71.788988,4.40101931 L73.5146144,2.65787469 L79.7199911,8.92618416 L77.9943023,10.6693918 L71.788988,4.40101931 Z M98.671235,8.93021936 L104.876549,2.66184684 L106.602238,4.40505451 L100.396924,10.673364 L98.671235,8.93021936 Z" id="形状"></path>
                </g>
            </g>
        </g>
    </g>
</svg>