<?xml version="1.0" encoding="UTF-8"?>
<svg width="20px" height="20px" viewBox="0 0 20 20" version="1.1" xmlns="http://www.w3.org/2000/svg" xmlns:xlink="http://www.w3.org/1999/xlink">
    <title>编组</title>
    <g id="页面-1" stroke="none" stroke-width="1" fill="none" fill-rule="evenodd">
        <g id="切图" transform="translate(-445.000000, -133.000000)" fill="#CCCCCC">
            <g id="编组" transform="translate(445.000000, 133.000000)">
                <path d="M9.9996203,4.9335436 C12.7752669,4.9335436 15.0665666,7.22397375 15.0665666,9.9996203 C15.0665666,12.7743973 12.7752669,15.065697 9.9996203,15.065697 C7.22397375,15.065697 4.9335436,12.7743973 4.9335436,9.9996203 C4.9335436,7.22397375 7.22397375,4.9335436 9.9996203,4.9335436 Z M9.99970677,6.99918552 C8.34105125,6.99918552 7.00005508,8.34087831 7.00005508,9.99953383 C7.00005508,11.6581893 8.34105125,12.9991855 9.99970677,12.9991855 C11.6583623,12.9991855 13.0000551,11.6581893 13.0000551,9.99953383 C13.0000551,8.34087831 11.6583623,6.99918552 9.99970677,6.99918552 Z" id="形状结合"></path>
                <path d="M11.6738778,0.48346566 C11.9382251,0.0869447242 12.4669196,-0.0887070939 12.9069188,0.0434665514 C13.6121347,0.263466106 14.3608289,0.527813396 15.0216971,0.924334332 C15.418218,1.18868162 15.6390871,1.67302847 15.5503917,2.11389714 C15.418218,2.77476537 15.5947394,3.43563359 16.0790862,3.91998044 C16.5643027,4.40432728 17.2251709,4.58084867 17.8860391,4.44867502 C18.370386,4.31650137 18.8547328,4.58084867 19.0756019,4.9773696 C19.4277751,5.63823783 19.7364701,6.34258423 19.9564697,7.09214793 C20.0886433,7.57649477 19.912122,8.06084162 19.515601,8.32518891 C18.9425587,8.72170984 18.5903855,9.29475216 18.5903855,9.99909856 C18.5903855,10.7043145 18.9425587,11.320835 19.515601,11.6730082 C19.912122,11.9373555 20.0886433,12.4225719 19.9564697,12.9069188 C19.7364701,13.6121347 19.4721229,14.3608289 19.0756019,15.0216971 C18.8103851,15.418218 18.3260382,15.6382176 17.8860391,15.5503917 C17.2251709,15.418218 16.5643027,15.5947394 16.0790862,16.0790862 C15.5947394,16.5190854 15.418218,17.2243013 15.5503917,17.8851695 C15.6825653,18.3695164 15.418218,18.8547328 15.0216971,19.0747324 C14.3608289,19.4269056 13.6564825,19.7356006 12.9069188,19.9556001 C12.8190928,19.9999479 12.6869192,19.9999479 12.5990933,19.9999479 C12.2469201,19.9999479 11.8938773,19.8234265 11.6738778,19.5147315 C11.2773568,18.9425587 10.7043145,18.5903855 9.99996812,18.5903855 C9.29475216,18.5903855 8.67823167,18.9425587 8.32518891,19.5147315 C8.06171118,19.9112524 7.53214704,20.0877738 7.09214793,19.9556001 C6.38693196,19.7356006 5.63823783,19.4712533 4.9773696,19.0747324 C4.58084867,18.8103851 4.36084911,18.3260382 4.44867502,17.8851695 C4.58084867,17.2243013 4.40432728,16.5634331 3.91998044,16.0790862 C3.47911177,15.5947394 2.77476537,15.418218 2.11389714,15.5503917 C1.62868073,15.6382176 1.14433389,15.418218 0.924334332,15.0216971 C0.572161133,14.3608289 0.263466106,13.6556129 0.0434665514,12.9069188 C-0.0887070939,12.4225719 0.0869447242,11.9373555 0.48346566,11.6730082 C1.05650798,11.2773568 1.40868118,10.7043145 1.40868118,9.99909856 C1.40868118,9.29475216 1.05650798,8.67736211 0.48346566,8.32518891 C0.0869447242,8.06084162 -0.0887070939,7.53214704 0.0434665514,7.09214793 C0.263466106,6.38693196 0.527813396,5.63823783 0.924334332,4.9773696 C1.18868162,4.58084867 1.67302847,4.36084911 2.11389714,4.44867502 C2.77476537,4.58084867 3.43563359,4.40432728 3.91998044,3.91998044 C4.40432728,3.47911177 4.58084867,2.77476537 4.44867502,2.11389714 C4.31650137,1.62868073 4.58084867,1.14433389 4.9773696,0.924334332 C5.63823783,0.572161133 6.34345379,0.263466106 7.09214793,0.0434665514 C7.57649477,-0.0887070939 8.06171118,0.0869447242 8.32518891,0.48346566 C8.72170984,1.05650798 9.29475216,1.40868118 9.99996812,1.40868118 C10.7043145,1.40868118 11.3217046,1.05650798 11.6738778,0.48346566 Z M12.4324502,1.99953334 C11.8240639,2.81151671 10.9303211,3.25798733 9.95562039,3.25798733 C8.94004001,3.25798733 8.04709877,2.77063699 7.47798901,1.99953334 C6.99063867,2.16144908 6.5040899,2.36504609 6.05681772,2.60872126 C6.21953502,3.58342192 5.89490199,4.55812259 5.20395464,5.24826838 C4.51380886,5.93841416 3.53910819,6.26304719 2.56440752,6.10113146 C2.32073236,6.54760208 2.1179369,7.03495241 1.95521961,7.52230274 C2.76720297,8.13149066 3.21447515,9.02443189 3.21447515,9.99913256 C3.21447515,11.0147129 2.72712482,11.9076542 1.95521961,12.4767639 C2.1179369,12.9641143 2.32073236,13.4514646 2.56440752,13.8979352 C3.53910819,13.7352179 4.51380886,14.0606525 5.20395464,14.7507983 C5.89490199,15.4409441 6.21953502,16.4156448 6.05681772,17.3903454 C6.5040899,17.6340206 6.99063867,17.836816 7.47798901,17.9995333 C8.08717692,17.18755 8.98091972,16.7402778 9.95562039,16.7402778 C10.9712008,16.7402778 11.864142,17.2276281 12.4324502,17.9995333 C12.9198005,17.836816 13.4079524,17.6340206 13.8544231,17.3903454 C13.6917058,16.4156448 14.0163388,15.4409441 14.7072861,14.7507983 C15.3974319,14.0606525 16.3721326,13.7352179 17.3468333,13.8979352 C17.5905084,13.4514646 17.7933039,12.9641143 17.9560212,12.4767639 C17.1440378,11.867576 16.6967656,10.9738332 16.6967656,9.99913256 C16.6967656,8.98435374 17.184116,8.09061094 17.9560212,7.52230274 C17.7933039,7.03495241 17.5905084,6.54760208 17.3468333,6.10113146 C16.3721326,6.26304719 15.3974319,5.93841416 14.7072861,5.24826838 C14.0163388,4.55812259 13.6917058,3.58342192 13.8544231,2.60872126 C13.4079524,2.36504609 12.9198005,2.16144908 12.4324502,1.99953334 Z" id="形状结合"></path>
            </g>
        </g>
    </g>
</svg>