<?xml version="1.0" encoding="UTF-8"?>
<svg width="24px" height="22px" viewBox="0 0 24 22" version="1.1" xmlns="http://www.w3.org/2000/svg" xmlns:xlink="http://www.w3.org/1999/xlink">
    <title>路径</title>
    <g id="页面-1" stroke="none" stroke-width="1" fill="none" fill-rule="evenodd">
        <g id="FAB最短高度" transform="translate(-336.000000, -345.000000)" fill="#F03D30" fill-rule="nonzero">
            <path d="M358.261452,348.095971 C358.012877,347.769828 357.784768,347.498812 357.553179,347.249282 C354.697783,344.172676 351.571866,344.478594 348.716525,346.799803 C348.462361,347.006419 348.22247,347.220906 347.996662,347.438895 C347.770854,347.220906 347.530936,347.006419 347.276772,346.799803 C344.421431,344.478594 341.295514,344.172676 338.440118,347.249254 C338.208529,347.498784 337.98042,347.7698 337.755817,348.062665 C334.293408,353.187111 336.196749,358.272174 341.318939,362.874618 C342.452007,363.892712 343.663212,364.808562 344.874417,365.609423 C345.298554,365.889878 345.692882,366.136215 346.04754,366.346669 C346.262389,366.474151 346.417759,366.562165 346.503868,366.608861 C346.634252,366.688695 346.764334,366.749621 346.892909,366.794216 C346.985813,366.838559 347.094142,366.87884 347.220032,366.914331 C347.899484,367.105904 348.906196,366.966573 349.518223,366.592278 C349.575566,366.562137 349.730935,366.474151 349.945785,366.346669 C350.300442,366.136215 350.694743,365.889878 351.118908,365.609423 C352.330112,364.808562 353.541317,363.892712 354.674385,362.874618 C359.796548,358.272174 361.699889,353.187111 358.261452,348.095971 Z" id="路径"></path>
        </g>
    </g>
</svg>