<?xml version="1.0" encoding="UTF-8"?>
<svg width="12px" height="12px" viewBox="0 0 12 12" version="1.1" xmlns="http://www.w3.org/2000/svg" xmlns:xlink="http://www.w3.org/1999/xlink">
    <title>编组 2</title>
    <g id="页面-1" stroke="none" stroke-width="1" fill="none" fill-rule="evenodd">
        <g id="无CB无AT——TOP-store" transform="translate(-93.000000, -579.000000)" fill-rule="nonzero">
            <g id="编组-7" transform="translate(25.000000, 542.000000)">
                <g id="编组-6" transform="translate(68.000000, 33.000000)">
                    <g id="编组-2" transform="translate(0.000000, 4.000000)">
                        <path d="M11.4663907,5.08717056 L6.91170509,0.532436634 C6.5700758,0.191199349 6.10686821,-0.000327540763 5.62400865,0 L1.82284176,0.000532568745 L1.82259987,0.000532568745 C0.816553762,0.000532568745 0,0.814038595 0,1.8202782 L0,5.61917138 C0.000188171554,6.10242167 0.192296592,6.56581363 0.534081029,6.90744834 L5.09036302,11.4638755 C5.43197864,11.8055065 5.89531812,11.9974342 6.37844648,11.9974342 C6.86157484,11.9974342 7.32491432,11.8055065 7.66652994,11.4638755 L11.4663907,7.66382125 C12.1778698,6.95229373 12.1778698,5.79864969 11.4663907,5.08717056 Z" id="路径" fill="#3479E8"></path>
                        <path d="M4.28135605,2.56286369 C3.33462002,2.56286369 2.56716881,3.3303149 2.56716881,4.27705092 C2.56716881,5.22378695 3.33462002,5.9911414 4.28135605,5.9911414 C5.22809207,5.9911414 5.9954949,5.22369019 5.9954949,4.27700254 C5.9954949,3.33031489 5.22799532,2.56286369 4.28135605,2.56286369 Z" id="路径" fill="#FDFDFD"></path>
                    </g>
                </g>
            </g>
        </g>
    </g>
</svg>