<?xml version="1.0" encoding="utf-8"?>
<!-- Generator: Adobe Illustrator 22.1.0, SVG Export Plug-In . SVG Version: 6.00 Build 0)  -->
<svg version="1.1" id="图层_1" xmlns="http://www.w3.org/2000/svg" xmlns:xlink="http://www.w3.org/1999/xlink" x="0px" y="0px"
	 viewBox="0 0 200.4 200" style="enable-background:new 0 0 200.4 200;" xml:space="preserve">
<style type="text/css">
	.st0{fill:#FFFFFF;}
</style>
<path class="st0" d="M107.4,0.6h85.5c3.9,0,7.1,3.2,7.1,7.1s-3.2,7.1-7.1,7.1h-85.6c-3.9,0-7.1-3.2-7.1-7.1S103.4,0.6,107.4,0.6z"/>
<path class="st0" d="M192.9,0.6c3.9,0,7.1,3.2,7.1,7.1v85.5c0,4-3.3,7.1-7.2,7.1s-7.1-3.2-7.1-7.1V7.7C185.7,3.8,189,0.6,192.9,0.6z
	"/>
<path class="st0" d="M0,192.1c0-4,3.2-6.3,7.1-6.3h85.5c3.9,0,7.1,3.2,7.1,7.1c0,0.1,0,0.3,0,0.4c-0.2,3.9-3.6,6.9-7.5,6.7h-85
	c-3.9,0-7.1-3.2-7.1-7.1L0,192.1L0,192.1z"/>
<path class="st0" d="M0,106c0-3.9,3.2-7.1,7.1-7.1s7.1,3.2,7.1,7.1v85.6c0,3.9-3.2,7.1-7.1,7.1S0,195.5,0,191.6V106z"/>
</svg>
