<?xml version="1.0" encoding="utf-8"?>
<!-- Generator: Adobe Illustrator 22.1.0, SVG Export Plug-In . SVG Version: 6.00 Build 0)  -->
<svg version="1.1" id="图层_1" xmlns="http://www.w3.org/2000/svg" xmlns:xlink="http://www.w3.org/1999/xlink" x="0px" y="0px"
	 viewBox="0 0 200 200" style="enable-background:new 0 0 200 200;" xml:space="preserve">
<style type="text/css">
	.st0{fill:#FFFFFF;}
</style>
<title>未标题-1</title>
<path d="M101.2,183.5c-6.3,0-12.7-0.1-19,0c-4.8,0.1-7-2.3-7-7c0-4.5-0.2-9,0.1-13.5c0.2-3.4-1.4-4.7-3.9-6.6
	c-5.3-3.8-9.7-3.8-14.6,0.5c-1.8,1.6-4.2,2.7-6.3,4c-6,3.7-8.2,3.2-11.7-2.8c-6.1-10.7-12.2-21.4-18.3-32.1c-2.3-4-2.5-7,2.3-9.3
	c3.1-1.5,5.8-4,9-5.4c5.4-2.3,7-6,6.6-11.7c-0.3-3.5-1-5.8-4.2-7.5c-4.3-2.3-8.2-5.2-12.4-7.5c-3.2-1.8-3.7-4.1-2.1-7
	c6.7-11.9,13.4-23.8,20.2-35.6c1.9-3.3,4.7-3.4,7.7-1.6c4.3,2.6,8.6,5,12.7,7.9c2.5,1.8,4.3,1.3,7.1,0.2c7.3-2.8,8.6-8,7.8-14.8
	c-0.4-2.9-0.1-6,0-9c0.2-3.9,2.2-6.2,6.3-6.2c13,0,26,0,39,0c4.3,0,6.4,2.2,6.3,6.6c-0.1,4.8-0.3,9.7,0.1,14.5c0.2,1.9,1.6,4,3,5.4
	c5.4,5,10.5,3.7,16.2-0.3c13.2-9.4,13.2-7.5,20.3,4.9c5,8.8,10.2,17.6,15.2,26.4c2.8,4.9,2.3,6.2-2.5,9.2c-3.1,1.9-6.1,4.2-9.4,5.7
	c-4.9,2.2-6.5,5.6-6.2,11c0.2,4.1,1.2,6.7,5,8.6c3.7,1.8,7.1,4.4,10.7,6.5c3.8,2.2,4.5,5.4,2.5,8.9c-6.4,11.5-13.1,22.8-19.7,34.2
	c-2.3,3.9-5.5,3.9-9,1.9c-4-2.3-8-4.8-11.8-7.4c-2.2-1.5-3.8-1.1-6.3-0.2c-7.2,2.8-8.7,7.7-8.4,14.9c0.6,14.3,0.2,14.3-13.9,14.3
	C108.9,183.5,105,183.5,101.2,183.5z M85.5,29.3c0,5.4-0.2,10.4,0.1,15.4c0.2,3.9-1.5,6.2-4.9,7.8c-3.6,1.7-7.1,3.7-10.4,5.9
	c-3.5,2.3-6.7,2.3-10.3,0.3c-4.3-2.4-8.8-4.7-13.5-7.2c-5.2,9-10.3,17.7-15.5,26.7c5.1,3.1,9.8,5.9,14.5,8.7c2.6,1.5,3.4,3.3,3,6.5
	c-0.7,4.9-0.8,10-0.1,14.8c0.5,3.5-0.3,5.3-3.1,6.9c-4.7,2.7-9.4,5.6-14.4,8.6c5.3,9.1,10.3,17.8,15.5,26.7
	c3.9-2.3,7.5-4.1,10.7-6.5c5.3-3.9,10.1-4.2,15.4,0.1c2.3,1.9,5.1,3.1,7.9,4.3c3.7,1.6,5.3,4.1,5.1,8.1c-0.3,5.3-0.1,10.6-0.1,16.1
	c10.5,0,20.6,0,31,0c0-5.3,0.1-10.3,0-15.3c-0.1-3.8,1.4-6.2,4.9-7.8c3.6-1.7,7.1-3.7,10.4-5.9c3.7-2.5,7-2.3,10.7-0.1
	c4.2,2.6,8.6,5.1,13.3,7.9c5.1-9,10.1-17.7,15.2-26.7c-4.7-2.8-8.9-5.5-13.2-8c-3.4-2-4.7-4.5-4.2-8.7c0.6-4.6,0.5-9.3,0.3-13.9
	c-0.1-3.5,0.8-6.1,3.9-7.9c4.4-2.5,8.7-5.2,13.3-8c-5.3-9.2-10.2-17.9-15.3-26.7c-4.8,2.9-9.2,5.5-13.6,8.1
	c-3.5,2.1-6.8,2.1-10.3-0.3c-2.9-2-5.9-3.9-9.1-5.2c-4.5-1.9-6.3-5.1-6.3-9.7c0-5,0-9.9,0-15.2C106.1,29.3,96.2,29.3,85.5,29.3z"/>
<path d="M132,101.2c-0.2,17.1-14.1,30.8-31,30.7c-17.4-0.1-31.1-14.1-30.7-31.4c0.4-17.5,14-30.8,31.1-30.5
	C118.5,70.3,132.2,84.3,132,101.2z M80.6,101.2c0.1,11.3,9,20.2,20.4,20.2c11.2,0,21-9.6,20.8-20.6c-0.2-11-9.6-20.2-20.6-20.2
	C89.5,80.6,80.5,89.6,80.6,101.2z"/>
<path class="st0" d="M80.6,101.2c-0.1-11.6,9-20.6,20.5-20.6c11.1,0,20.5,9.3,20.6,20.2c0.2,11-9.6,20.6-20.8,20.6
	C89.6,121.4,80.7,112.5,80.6,101.2z"/>
</svg>
